<svg version="1.1" xmlns="http://www.w3.org/2000/svg" xmlns:xlink="http://www.w3.org/1999/xlink" viewBox="0 0 226 226"><g fill="none" fill-rule="nonzero" stroke="none" stroke-width="1" stroke-linecap="butt" stroke-linejoin="miter" stroke-miterlimit="10" stroke-dasharray="" stroke-dashoffset="0" font-family="none" font-weight="none" font-size="none" text-anchor="none" style="mix-blend-mode: normal"><path d="M0,226v-226h226v226z" fill="none"></path><g fill="#2ecc71"><path d="M113,0.44141c-8.95412,0 -17.04061,4.25396 -28.24117,10.14352c-14.42332,7.58456 -34.19288,17.97406 -67.64992,25.31906l-3.54891,0.77687v3.63719c0,137.7018 96.56563,183.87494 97.54195,184.32242l1.99516,0.91813l1.95102,-0.99758c0.97632,-0.4972 97.39187,-51.12897 97.39187,-184.24297v-3.63719l-3.54891,-0.77687c-33.45704,-7.345 -53.2266,-17.7345 -67.64992,-25.31906c-11.20056,-5.88956 -19.28705,-10.14352 -28.24117,-10.14352zM113,49.72c14.916,0 27.12,12.65247 27.12,28.02047v8.13953h4.97023c4.972,0 8.58977,4.06977 8.58977,8.58977v46.10047c0,4.52 -4.06977,8.58977 -8.58977,8.58977h-64.18047c-4.972,0 -8.58977,-4.068 -8.58977,-9.04v-45.65023c0,-4.52 3.61777,-8.58977 8.58977,-8.58977h4.97023v-8.13953c0,-15.368 12.204,-28.02047 27.12,-28.02047zM113,58.76c-9.944,0 -18.08,8.58447 -18.08,18.98047v8.13953h36.16v-8.13953c0,-10.396 -8.136,-18.98047 -18.08,-18.98047zM113,108.48c-3.616,0 -6.32977,2.71377 -6.32977,6.32977c0,1.808 0.904,3.164 2.26,4.52v5.8707c0,2.26 1.80977,4.06976 4.06977,4.06976c2.26,0 4.06977,-1.80976 4.06977,-4.06976v-5.8707c1.356,-1.356 2.26,-2.712 2.26,-4.52c0,-3.616 -2.71377,-6.32977 -6.32977,-6.32977z"></path></g></g></svg>